# xmcd CD database file
#
# Track frame offsets:
#	150
#	32582
#	55460
#	77465
#	94250
#	112160
#	129152
#	147587
#	169825
#	188762
#	211762
#	239062
#
# Disc length: 3496 seconds
#
# Revision: 3
# Processed by: cddbd v1.5.2PL0 Copyright (c) Steve Scherf et al.
# Submitted via: Feurio! 1.68 - http://www.feurio.com
#
DISCID=a80da60c
DTITLE=Various Artist - Body and Soul: Night Moods [CD2]
DYEAR=1998
DGENRE=Slow Jam
TTITLE0=Freddie Jackson - Tasty Love
TTITLE1=Phyllis Hyman - Can't We Fall in Love Again
TTITLE2=Billy Ocean - There'll Be Sad Songs
TTITLE3=A Taste of Honey - Sukiyaki
TTITLE4=The Stylistics - Break Up to Make Up
TTITLE5=Gladys Knight - Best Thing That Ever Happened to Me
TTITLE6=Ray Parker Jr. - A Woman Needs Love
TTITLE7=Melba Moore - A Little Bit More
TTITLE8=Klique - Stop Doggin' Me Around
TTITLE9=The Whispers - Lady
TTITLE10=Enchantment - It's You That I Need
TTITLE11=The Dramatics - In the Rain
EXTD=
EXTT0=
EXTT1=
EXTT2=
EXTT3=
EXTT4=
EXTT5=
EXTT6=
EXTT7=
EXTT8=
EXTT9=
EXTT10=
EXTT11=
PLAYORDER=
